<?xml version="1.0" encoding="utf-8"?>
<!-- Generator: Adobe Illustrator 27.3.1, SVG Export Plug-In . SVG Version: 6.00 Build 0)  -->
<svg version="1.1" xmlns="http://www.w3.org/2000/svg" xmlns:xlink="http://www.w3.org/1999/xlink" x="0px" y="0px"
	 viewBox="0 0 512 512" style="enable-background:new 0 0 512 512;" xml:space="preserve">
<style type="text/css">
	.st0{fill:#FFFFFF;}
</style>
<g id="Capa_2">
	<rect class="st0" width="512" height="512"/>
</g>
<g id="Layer_1">
	<path d="M512,106.7c0-47.1-38.3-85.3-85.3-85.3s-85.3,38.3-85.3,85.3c0,39.7,27.2,73.1,64,82.6V320c0,35.3-28.7,64-64,64h-71.9
		l47-47c8.3-8.3,8.3-21.8,0-30.2c-8.3-8.3-21.8-8.3-30.2,0L232.1,361c-11.7,11.7-18.8,23-18.8,44.3s6.3,33.8,18.8,46.2l54.2,54.2
		c4.2,4.2,9.6,6.3,15.1,6.3s10.9-2.1,15.1-6.3c8.3-8.3,8.3-21.8,0-30.2l-48.9-48.9h73.8c58.8,0,106.7-47.9,106.7-106.7V189.3
		C484.8,179.8,512,146.4,512,106.7L512,106.7z M426.7,149.3c-23.5,0-42.7-19.1-42.7-42.7S403.1,64,426.7,64
		c23.5,0,42.7,19.1,42.7,42.7S450.2,149.3,426.7,149.3z M281.7,151.9c12.1-12.1,18.8-28.2,18.8-45.3s-6.7-33.2-18.8-45.2L227.5,7.2
		c-8.3-8.3-21.8-8.3-30.2,0c-8.3,8.3-8.3,21.8,0,30.2l47.9,48h-74.6C111.9,85.3,64,133.2,64,192v130.7c-36.8,9.5-64,42.9-64,82.6
		c0,47.1,38.3,85.3,85.3,85.3s85.3-38.3,85.3-85.3c0-39.7-27.2-73.1-64-82.6V192c0-35.3,28.7-64,64-64h74.6l-48,48
		c-8.3,8.3-8.3,21.8,0,30.2c4.2,4.2,9.6,6.3,15.1,6.3c5.5,0,10.9-2.1,15.1-6.3L281.7,151.9L281.7,151.9z M128,405.3
		c0,23.5-19.1,42.7-42.7,42.7s-42.7-19.1-42.7-42.7s19.1-42.7,42.7-42.7S128,381.8,128,405.3z"/>
</g>
</svg>
