<?xml version="1.0" encoding="utf-8"?>
<!-- Generator: Adobe Illustrator 27.3.1, SVG Export Plug-In . SVG Version: 6.00 Build 0)  -->
<svg version="1.1" id="Layer_1" xmlns="http://www.w3.org/2000/svg" xmlns:xlink="http://www.w3.org/1999/xlink" x="0px" y="0px"
	 viewBox="0 0 512 512" style="enable-background:new 0 0 512 512;" xml:space="preserve">
<style type="text/css">
	.st0{fill:#FFFFFF;}
</style>
<path class="st0" d="M277.9,64V21.3c0-11.8,9.6-21.3,21.3-21.3c11.8,0,21.3,9.6,21.3,21.3V64c0,11.8-9.6,21.3-21.3,21.3
	C287.4,85.3,277.9,75.8,277.9,64z M213.9,85.3c11.8,0,21.3-9.6,21.3-21.3V21.3c0-11.8-9.6-21.3-21.3-21.3
	c-11.8,0-21.3,9.6-21.3,21.3V64C192.5,75.8,202.1,85.3,213.9,85.3z M128.5,85.3c11.8,0,21.3-9.6,21.3-21.3V21.3
	c0-11.8-9.6-21.3-21.3-21.3s-21.3,9.6-21.3,21.3V64C107.2,75.8,116.8,85.3,128.5,85.3L128.5,85.3L128.5,85.3z M512,280.4
	c-1.5,46-39.3,82.5-85.3,82.3h-52.8c-27.6,40.4-73.5,64.4-122.5,64h-76.1c-49.8,0.5-96.5-24.3-123.9-65.9
	C21.2,312.6-52.3,135.9,64,128h298.7c36.5,1,65.3,31.4,64.3,67.9c-0.2,5.9-1.1,11.8-2.8,17.4C476.9,213.3,512,239,512,280.4z
	 M469.3,280.4c1.9-19.8-26.7-26.1-52.4-24.4c-4.8,21.9-11.6,43.3-20.4,64h30.1C449.2,320.2,467.9,302.8,469.3,280.4z M405.3,469.3
	h-384C9.6,469.3,0,478.9,0,490.7C0,502.4,9.6,512,21.3,512h384c11.8,0,21.3-9.6,21.3-21.3C426.7,478.9,417.1,469.3,405.3,469.3z"/>
</svg>
