<?xml version="1.0" encoding="utf-8"?>
<!-- Generator: Adobe Illustrator 27.3.1, SVG Export Plug-In . SVG Version: 6.00 Build 0)  -->
<svg version="1.1" id="Outline" xmlns="http://www.w3.org/2000/svg" xmlns:xlink="http://www.w3.org/1999/xlink" x="0px" y="0px"
	 viewBox="0 0 512 512" style="enable-background:new 0 0 512 512;" xml:space="preserve">
<style type="text/css">
	.st0{fill:#FFFFFF;}
</style>
<path class="st0" d="M256,42.7c57.2,0.2,111.9,23.2,151.9,64h-66.6c-11.8,0-21.3,9.6-21.3,21.3l0,0c0,11.8,9.6,21.3,21.3,21.3h88.4
	c21.9,0,39.6-17.7,39.6-39.6V21.3C469.3,9.6,459.8,0,448,0l0,0c-11.8,0-21.3,9.6-21.3,21.3v44.3c-104.9-94.5-266.5-86-361,18.9
	c-37,41.1-59.6,93-64.6,148c-1.1,11.8,7.6,22.3,19.4,23.4c0.6,0.1,1.3,0.1,1.9,0.1l0,0c10.8,0.1,20-8,21.1-18.7
	C53.3,127.2,145.5,42.8,256,42.7z"/>
<path class="st0" d="M489.6,256c-10.8-0.1-20,8-21.1,18.7c-10.2,117.2-113.5,204-230.7,193.8c-50.7-4.4-98.2-26.8-133.8-63.2h66.6
	c11.8,0,21.3-9.6,21.3-21.3l0,0c0-11.8-9.6-21.3-21.3-21.3H82.3c-21.9,0-39.6,17.7-39.6,39.6c0,0,0,0,0,0v88.4
	c0,11.8,9.6,21.3,21.3,21.3l0,0c11.8,0,21.3-9.6,21.3-21.3v-44.3c104.9,94.5,266.5,86,361-18.9c37-41.1,59.6-93,64.6-148
	c1.1-11.8-7.6-22.3-19.4-23.4C490.9,256,490.2,256,489.6,256L489.6,256z"/>
</svg>
